<svg class="animatedIcon" xmlns="http://www.w3.org/2000/svg" width="122" height="122" xml:space="preserve"><path fill="none" stroke="#DE693E" stroke-width="2" d="M1 61a60 60 0 1 1 120 0A60 60 0 1 1 1 61" style="stroke-dasharray:378,380;stroke-dashoffset:0"/><path fill="none" stroke="#DE693E" stroke-width="2" stroke-linecap="round" d="m64.191 36.107 8.465-8.465" style="stroke-dasharray:12,14;stroke-dashoffset:0"/><path fill="none" stroke="#DE693E" stroke-width="2" stroke-linecap="round" d="m33.784 66.513 10.604-10.604" style="stroke-dasharray:15,17;stroke-dashoffset:0"/><path fill="none" stroke="#DE693E" stroke-width="2" stroke-linecap="round" d="M45.8 78.528 70.459 53.87M57.821 90.549l24.66-24.658" style="stroke-dasharray:35,37;stroke-dashoffset:0"/><path fill="none" stroke="#DE693E" stroke-width="2" d="M60.694 33.936c.364-.364.917-.401 1.222-.096l4.531 4.531c.311.311.268.859-.096 1.222l-16.501 16.5c-1.457 1.458-3.65 1.628-4.907.371l-1.12-1.12c-1.253-1.253-1.089-3.448.371-4.907l16.5-16.501z" style="stroke-dasharray:69,71;stroke-dashoffset:0"/><path fill="none" stroke="#DE693E" stroke-width="2" stroke-linecap="square" d="m57.818 36.812 5.657 5.657" style="stroke-dasharray:9,11;stroke-dashoffset:0"/><path fill="none" stroke="#DE693E" stroke-width="2" d="M46.151 78.178A8.5 8.5 0 0 1 34.13 66.157M82.213 66.156a8.498 8.498 0 0 0 0-12.02 8.5 8.5 0 0 0-12.021 0" style="stroke-dasharray:27,29;stroke-dashoffset:0"/></svg>