<svg class="logo" xmlns="http://www.w3.org/2000/svg" width="93" height="20" xml:space="preserve"><path fill="#4B4B4B" d="M32.855 12.867 27.893.951l-.026-.064-.015-.033h-.002A1.505 1.505 0 0 0 26.5 0c-.633 0-1.172.395-1.393.949L20.169 12.82a1.485 1.485 0 0 0-.169.68v5a1.5 1.5 0 1 0 3 0V15h7v3.5a1.5 1.5 0 1 0 3 0v-5c0-.227-.055-.439-.145-.633zM23.745 12l2.757-6.62L29.255 12h-5.51zm69.11.868L87.893.953l-.027-.067-.014-.032h-.004A1.5 1.5 0 0 0 86.5 0c-.633 0-1.172.395-1.393.949l-4.939 11.874A1.484 1.484 0 0 0 80 13.5v5a1.5 1.5 0 0 0 3 0V15h7v3.5a1.5 1.5 0 0 0 3 0v-5c0-.227-.055-.439-.145-.632zM83.746 12l2.756-6.62L89.256 12h-5.51zM13 5.75A5.75 5.75 0 0 0 7.25 0H1.5A1.5 1.5 0 0 0 0 1.5v17A1.5 1.5 0 0 0 1.5 20h5.75A5.75 5.75 0 0 0 13 14.25c0-1.688-.73-3.198-1.887-4.25A5.724 5.724 0 0 0 13 5.75zM7.25 17H3v-5.5h4.25a2.75 2.75 0 1 1 0 5.5zm0-8.5H3V3h4.25a2.75 2.75 0 1 1 0 5.5zM46.5 3C48.434 3 50 4.566 50 6.5a1.5 1.5 0 1 0 3 0 6.5 6.5 0 1 0-13 0v7a6.5 6.5 0 1 0 13 0 1.5 1.5 0 0 0-3 0c0 1.934-1.566 3.5-3.5 3.5S43 15.434 43 13.5v-7C43 4.566 44.566 3 46.5 3zm20 0C68.434 3 70 4.566 70 6.5a1.5 1.5 0 1 0 3 0 6.5 6.5 0 1 0-13 0v7a6.5 6.5 0 1 0 13 0 1.5 1.5 0 0 0-3 0c0 1.934-1.566 3.5-3.5 3.5S63 15.434 63 13.5v-7C63 4.566 64.566 3 66.5 3z"/></svg>