<svg xmlns="http://www.w3.org/2000/svg" width="200" height="143" viewBox="205 323.5 202 145" xml:space="preserve"><path fill="none" stroke="#FDFDFD" stroke-linecap="round" stroke-linejoin="round" stroke-miterlimit="10" d="M321.6 398.3c.3 0 .5-.1.8-.1" style="stroke-dasharray:1,3;stroke-dashoffset:0"/><path fill="none" stroke="#FDFDFD" stroke-linecap="round" stroke-linejoin="round" stroke-miterlimit="10" d="M320.4 398.4h0c.4 0 .8 0 1.2-.1" style="stroke-dasharray:2,4;stroke-dashoffset:0"/><path fill="none" stroke="#FDFDFD" stroke-linecap="round" stroke-linejoin="round" stroke-miterlimit="10" d="M241.9 375.7c-.3 3.8-.5 7.8-.8 11.6 0 .5-.1 1-.1 1.5-.4 5.8-.8 11.5-1.2 17.1-.1 2.6-.4 5.1-.5 7.7-.1 1.3-.1 2.6-.3 3.7-.1 1.3-.1 2.6-.3 3.7 0 .8.3 1.8.8 2.4.3.4 1.2.8 1.5.9 1 .6 2.2 1.2 3.1 1.8 2.2 1.2 4.2 2.3 6.4 3.3 2.8 1.5 5.5 2.8 8.3 4.3 6.3 3.3 12.4 6.6 18.7 10 4.5 2.4 9 4.7 13.4 7.2.5.3 1 .5 1.3.9.5.6.8 1.3.8 2 0 .5-.3 3.5-.3 4-.1 1.3-.3 2.7-.4 3.8-.1.6-.1 1.3-.3 2-.1.5-.4 1-.9 1.2-1.9.5-3.8 1-5.8 1.5" style="stroke-dasharray:128,130;stroke-dashoffset:0"/><path fill="none" stroke="#FDFDFD" stroke-linecap="round" stroke-linejoin="round" stroke-miterlimit="10" d="m390 439.2 4.2-1.2c.5-.1.9-.6 1-1.2s.1-1.2.3-1.8c.1-1.2.4-2.3.5-3.6.1-.6.1-1.3.3-1.9.1-.6.3-1.3 0-1.9-.5-1.4-1.5-1.7-2.7-2.2-4.6-1.9-9-3.6-13.3-5.5-8.7-3.6-17.6-7.3-26.3-10.9-2.3-.9-4.3-1.9-6.6-2.8-1-.5-2-.9-3.2-1.4-.5-.1-1.2-.4-1.7-.6-.5-.3-1.2-.4-1.5-1-.8-1-.4-2.4-.3-3.5.1-1 .3-2.3.4-3.5.4-2.4.6-4.7.9-7.2 1-9.5 2-18.9 3.2-28.4" style="stroke-dasharray:120,122;stroke-dashoffset:0"/><path fill="none" stroke="#FDFDFD" stroke-linecap="round" stroke-linejoin="round" stroke-miterlimit="10" d="M293.1 426.6h0c-1.3-.4-2.6-.8-3.7-1.2-.6-.1-.9-.8-1-1.4-.1-.6 0-1.2 0-1.8V411.6" style="stroke-dasharray:19,21;stroke-dashoffset:0"/><path fill="none" stroke="#FDFDFD" stroke-linecap="round" stroke-linejoin="round" stroke-miterlimit="10" d="M211.9 333.3c1.9-.1 3.7-.3 5.6-.5.4 0 1.2.5 1.4.6.4.3.8.5 1.2.6.8.5 1.5.9 2.2 1.4 1.5.9 2.9 1.8 4.5 2.8 2.9 1.9 6 3.6 9 5.5 6 3.6 12 7.4 18 11 12 7.4 24 14.6 36.1 22" style="stroke-dasharray:91,93;stroke-dashoffset:0"/><path fill="none" stroke="#FDFDFD" stroke-linecap="round" stroke-linejoin="round" stroke-miterlimit="10" d="M316 325.3c1.4-.1 2.8-.3 4.2-.4.4 0 1.2.4 1.4.5.4.1.8.4 1.2.6.8.3 1.5.6 2.4 1 1.5.8 3.1 1.5 4.6 2.3l9.5 4.6c6.4 3.1 12.7 6.3 19.1 9.3 12.7 6.3 25.2 12.5 38 18.8" style="stroke-dasharray:89,91;stroke-dashoffset:0"/><path fill="none" stroke="#FDFDFD" stroke-linecap="round" stroke-linejoin="round" stroke-miterlimit="10" d="M398.5 356.9c1.4-.3 2.8-.4 4.2-.6.5 0 1.2.3 1.5.5.5.3.9.4 1.3.8.8 1 .5 1.9.4 2.8l-.9 6-.9 6c-.1 1-.3 2-.4 2.9-.1.9-.3 2.3-1.5 2.4-1.4.3-2.8.5-4.2.8" style="stroke-dasharray:33,35;stroke-dashoffset:0"/><path fill="none" stroke="#FDFDFD" stroke-linecap="round" stroke-linejoin="round" stroke-miterlimit="10" d="M291.4 371.8c2-.3 3.8-.5 5.9-.9.5 0 1.3.4 1.7.6.5.3.9.6 1.3 1.2.6 1.2.4 2.3.3 3.3-.1.8-.1 1.5-.3 2.3 0 .5-.1 1-.1 1.4-.1 1-.3 2-.3 3.1-.3 2.3-.4 4.6-.6 6.9-.1 1.2-.3 2.3-.3 3.3-.1.9 0 2.7-1.4 2.8-1.9.4-3.8.6-5.8 1" style="stroke-dasharray:40,42;stroke-dashoffset:0"/><path fill="none" stroke="#FDFDFD" stroke-linecap="round" stroke-linejoin="round" stroke-miterlimit="10" d="m220.1 419.1.3-.3s0-.1.1-.1c.1-.4.1-.6.1-1 0-.1 0-.4-.1-.5 0 0 0-.1-.1-.1-.1-.5-.4-.9-.8-1-.2-8-.4-15.8-.6-23.8-1.3-.4-2.6-.6-3.7-1-1.2.1-2.4.4-3.5.5-.6.1-1.2.1-1.8.3-.6.3-1.2.3-1.7.5l-.1.1c-.4.4-.6.9-.8 1.4-.1.6 0 1.2 0 1.8 0 1.3 0 2.4.1 3.6 0 1.7.1 3.1.1 4.7.1 3.2.1 6.5.3 9.6.1 4.9.3 9.6.4 14.4 0 2.4.1 4.7.1 7.3 0 .9 0 1.8.1 2.6v1.2c0 .6 0 1.3.1 1.8s.5 1 1 1.3c1.2.4 2.3.9 3.5 1.3" style="stroke-dasharray:93,95;stroke-dashoffset:0"/><path fill="none" stroke="#FDFDFD" stroke-linecap="round" stroke-linejoin="round" stroke-miterlimit="10" d="M219.7 419.1c.3.1.4 0 .5-.1" style="stroke-dasharray:1,3;stroke-dashoffset:0"/><path fill="none" stroke="#FDFDFD" stroke-linecap="round" stroke-linejoin="round" stroke-miterlimit="10" d="M261.5 384.2c-.4-.1-.9-.4-1.3-.5-6.1-2.8-12.3-5.4-18.4-8.1h0c-1-.4-2-.9-2.9-1.3-.4-.1-.9-.4-1.3-.6-.5-.1-.9.1-1.2.5-.4.7-.4 1.3-.4 2 0 .8-.1 1.4-.1 2.2-.1 2.8-.4 5.5-.5 8.3-.4 5.5-.6 11-1 16.5-.4 5.6-.6 11.1-1 16.8 0 .8-.1 1.4-.1 2.2 0 .8 0 1.4.4 2.2.3.6.5.9 1.2 1.2.4.3.9.5 1.3.8 1.8 1 3.5 1.9 5.2 2.8 7.3 4 14.4 7.9 21.9 11.9 3.7 2 7.5 4.1 11.3 6.1 2 1 3.8 2.2 5.9 3.1 1 .5 2 1.2 2.9 1.7.5.3 1 .5 1.5.8.5.3 1 .5 1.5.9.6.6.9 1.3 1 2 .1.8 0 1.5-.1 2.2-.1 1.5-.3 2.8-.4 4.3 0 .8-.1 1.5-.3 2.2 0 .6 0 1.4-.4 2-.1.3-.4.5-.6.6-.1 0-.4.1-.6 0-.5-.1-1-.4-1.5-.6-3.8-1.5-7.8-2.8-11.8-4.3-17.1-6.4-34.4-12.8-51.5-19.3-.1-7.8-.4-15.5-.5-23.3" style="stroke-dasharray:246,248;stroke-dashoffset:0"/><path fill="none" stroke="#FDFDFD" stroke-linecap="round" stroke-linejoin="round" stroke-miterlimit="10" d="M264.1 385.4c-.9-.4-1.7-.8-2.6-1.2" style="stroke-dasharray:3,5;stroke-dashoffset:0"/><path fill="none" stroke="#FDFDFD" stroke-linecap="round" stroke-linejoin="round" stroke-miterlimit="10" d="M208 392.5c.8-18.2 1.7-36.6 2.6-54.9 0-.8 0-1.7.1-2.4 0-.5.1-1.4.8-1.8h.4c.4 0 .6.3.9.4.5.3.9.5 1.4.9 1.8 1.2 3.6 2.3 5.4 3.3 3.7 2.4 7.4 4.7 11.1 7 8.1 4.9 15.9 9.8 23.9 14.7 7.3 4.5 14.4 9 21.7 13.4 1.9 1.2 3.7 2.4 5.8 3.5 1 .6 1.9 1.3 2.8 1.8l1.5.9c.4.3 1 .8 1.5.6.6 0 1-.6 1.3-1.2.1-.4.4-1.8.4-2.2v-.1c.1-.8.3-1.4.4-2.2.1-.5.3-1.7.5-2 .3-.4.5-.6 1-.6h0c.1 0 .3 0 .4.1.3.1.5.3.8.4.3.1.5.3.8.4.6.4 1 1.2 1.2 1.8.3.8.1 1.5 0 2.3-.5 5.9-1 11.9-1.7 17.8-.1.8 0 1.4-.4 2-.1.3-.4.5-.8.6h0c-.1 0-.4.1-.6 0-.1 0-1.3-.5-1.5-.6-.5-.3-1-.4-1.5-.6-1.9-.9-3.8-1.7-5.8-2.6-6.1-2.7-12.1-5.4-18.3-8.1" style="stroke-dasharray:217,219;stroke-dashoffset:0"/><path fill="none" stroke="#FDFDFD" stroke-linecap="round" stroke-linejoin="round" stroke-miterlimit="10" d="M322.5 399.1v-.7c0-.1 0-.3-.1-.4-.1-.4-.4-.8-.9-.9" style="stroke-dasharray:3,5;stroke-dashoffset:0"/><path fill="none" stroke="#FDFDFD" stroke-linecap="round" stroke-linejoin="round" stroke-miterlimit="10" d="M321.5 400.2c.1 0 .4 0 .5-.1.1 0 .3-.1.3-.3.1-.3.1-.5.3-.8" style="stroke-dasharray:2,4;stroke-dashoffset:0"/><path fill="none" stroke="#FDFDFD" stroke-linecap="round" stroke-linejoin="round" stroke-miterlimit="10" d="M321.8 400.7c-.1 6.8-.3 13.6-.3 20.5 16.9 4.7 33.9 9.2 50.8 13.7 4 .9 7.9 2 11.9 3.1.9.4 1.9.6 2.9.9.5.1 1 .3 1.5.4.4.1.8.3 1.3.1.1 0 .1-.1.3-.1.5-.3.6-.8.8-1.4.1-.6.1-1.3.3-1.9.1-1.2.4-2.4.5-3.7.1-.6.1-1.3.3-1.9.1-.6 0-1.3-.4-1.9-.4-.5-.9-.8-1.4-1-.5-.3-1-.4-1.5-.6-2-.9-4-1.7-6-2.6-3.8-1.7-7.9-3.2-11.8-4.9-7.9-3.2-15.6-6.5-23.4-9.7-1.9-.9-3.7-1.7-5.6-2.4-.9-.4-1.9-.8-2.8-1.2-.5-.3-.9-.5-1.4-.6-.6-.3-.9-.4-1.3-1s-.5-1.3-.4-1.9.1-1.3.3-1.9c.1-1.2.3-2.4.4-3.7l.9-7.5c.5-4.9 1.2-9.7 1.7-14.4.3-2.4.5-4.9.8-7.3.1-1 .3-2.3.4-3.6.1-.6.1-1.3.3-1.9 0-.6.1-1.2.5-1.7" style="stroke-dasharray:208,210;stroke-dashoffset:0"/><path fill="none" stroke="#FDFDFD" stroke-linecap="round" stroke-linejoin="round" stroke-miterlimit="10" d="M309.8 376.9c.9-8.6 1.7-17.4 2.6-26 .4-4.3.9-8.8 1.3-13.3.2-2.2.3-4.4.6-6.6.1-1.2.3-2.3.4-3.3.1-.8.1-2.3 1.3-2.6h.1c.4 0 1 .4 1.3.5.5.3.9.5 1.4.6.9.5 1.9.9 2.8 1.4 1.7.9 3.6 1.9 5.4 2.8 3.8 1.9 7.7 3.8 11.5 5.8 8.2 4 16.2 8.2 24.4 12.1 7.4 3.6 14.7 7.4 22.1 11 1.9 1 3.8 1.9 5.8 2.8 1 .5 2 1 2.8 1.5 1.3.6 2.2-.1 2.4-1.4v-.3c.3-1.2.6-2.4.9-3.5.1-.6.3-1.2.9-1.5.3-.1.4-.1.5-.1h0c.3 0 .6.1.9.3.5.3 1 .4 1.4.8.5.5.8 1 .8 1.8 0 .4-.4 3.5-.5 3.8-.4 2.7-.8 5.2-1.2 7.9-.1 1.3-.4 2.7-.5 3.8-.1.6-.1 1.3-.3 1.9-.1.6-.4 1.2-1 1.4h-.1c-.5.1-.9 0-1.4-.1-.5-.1-1-.4-1.5-.5-1-.4-2-.8-2.9-1-2-.6-4-1.4-6-2-7.7-2.7-15.2-5.2-22.9-7.8-3.7-1.3-7.5-2.6-11.3-3.8-1.9-.6-3.6-1.3-5.5-1.9-.5-.1-.9-.4-1.4-.5-.4-.1-.9-.3-1.3-.5-.5-.1-.9-.3-1.4-.5-.5-.1-.9-.1-1.3.4" style="stroke-dasharray:234,236;stroke-dashoffset:0"/><path fill="none" stroke="#FDFDFD" stroke-linecap="round" stroke-linejoin="round" stroke-miterlimit="10" d="m321.7 376.6-3.9-.7-8 1-9.7 1.6" style="stroke-dasharray:22,24;stroke-dashoffset:0"/><path fill="none" stroke="#FDFDFD" stroke-linecap="round" stroke-linejoin="round" stroke-miterlimit="10" d="M322.5 399.1h0c-.1.5-.4.9-.9 1.2h-.2 0c-.4.1-.8-.1-1-.6-.1-.4-.1-.8-.1-1.2.1-.5.5-1 1-1.2 0-7 .1-13.8.3-20.8-7.3 1.2-14.4 2.3-21.7 3.2" style="stroke-dasharray:49,51;stroke-dashoffset:0"/><path fill="none" stroke="#FDFDFD" stroke-linecap="round" stroke-linejoin="round" stroke-miterlimit="10" d="m218.3 417.1.4.1 1.4-.2.2-.2" style="stroke-dasharray:3,5;stroke-dashoffset:0"/><path fill="none" stroke="#FDFDFD" stroke-linecap="round" stroke-linejoin="round" stroke-miterlimit="10" d="M218.9 416.2c.3-.1.4-.3.8-.4" style="stroke-dasharray:1,3;stroke-dashoffset:0"/><path fill="none" stroke="#FDFDFD" stroke-linecap="round" stroke-linejoin="round" stroke-miterlimit="10" d="M220.3 418.8c-.1.1-.4.3-.5.4h-.1 0c-.6.1-1.3-.3-1.4-1.2 0-.3 0-.6.1-1s.3-.6.6-.9" style="stroke-dasharray:5,7;stroke-dashoffset:0"/><path fill="none" stroke="#FDFDFD" stroke-linecap="round" stroke-linejoin="round" stroke-miterlimit="10" d="M219 392.2c-1.4.3-2.7.4-4 .6-.6.1-1.4.3-2 .3-.8.3-1.3.5-1.7 1.2-.4.6-.4 1.3-.4 1.9v2c0 1.4.1 2.8.1 4.1.1 5.5.3 10.9.4 16.4.1 5.5.3 10.9.4 16.4 0 1.4.1 2.8.1 4.1v2c0 .6-.1 1.3.3 1.9.1.1.4.3.5.4h.1l.1.1c.4.1.8.1 1.3 0 1.9-.4 3.8-.9 5.8-1.3" style="stroke-dasharray:66,68;stroke-dashoffset:0"/><path fill="none" stroke="#FDFDFD" stroke-linecap="round" stroke-linejoin="round" stroke-miterlimit="10" d="M218.9 416.2h0c-.1.4-.3.6-.3 1" style="stroke-dasharray:2,4;stroke-dashoffset:0"/><path fill="none" stroke="#FDFDFD" stroke-linecap="round" stroke-linejoin="round" stroke-miterlimit="10" d="M261.5 384.2h0l-20.3 3" style="stroke-dasharray:21,23;stroke-dashoffset:0"/><path fill="none" stroke="#FDFDFD" stroke-linecap="round" stroke-linejoin="round" stroke-miterlimit="10" d="M219.8 419.1h.3M322.5 398.6l-.9-.3h0" style="stroke-dasharray:1,3;stroke-dashoffset:0"/><path fill="none" stroke="#FDFDFD" stroke-linecap="round" stroke-linejoin="round" stroke-miterlimit="10" d="M208.4 437.9c-.3-.1-1.3-.5-1.5-.6-.6-.5-.9-1.7-.9-2.6 0-1.5.1-2.8.3-4.3.1-2.8.3-5.9.4-8.7.3-5.9.5-11.6.9-17.5v-.1" style="stroke-dasharray:36,38;stroke-dashoffset:0"/><path fill="none" stroke="#FDFDFD" stroke-linecap="round" stroke-linejoin="round" stroke-miterlimit="10" d="M258.9 434c.5-.4.8-.8 1-1.4.1-.3.1-.6.1-.9v-1.8c0-2.4 0-4.7-.1-7.2v-3.2c0-.6.1-1 .5-1.5.3-.4.6-.8 1.2-.9 1.8-.4 3.3-.6 5.1-1 7.3-1.4 14.3-2.8 21.6-4.1.4-.1.8-.1 1.2-.3.4-.1.9-.1 1.3-.3h.4c.3 0 .5.1.6.3.5.5.5.9.5 1.5v11.5c0 .6 0 1.2.5 1.7l.3.3c.1 0 .3.1.4.1.5 0 .9-.1 1.3-.3 1.3-.3 2.7-.6 3.8-.9 7.7-1.7 15.1-3.2 22.8-4.9" style="stroke-dasharray:94,96;stroke-dashoffset:0"/><path fill="none" stroke="#FDFDFD" stroke-linecap="round" stroke-linejoin="round" stroke-miterlimit="10" d="m322.1 400.1-.5.1" style="stroke-dasharray:1,3;stroke-dashoffset:0"/><path fill="none" stroke="#FDFDFD" stroke-linecap="round" stroke-linejoin="round" stroke-miterlimit="10" d="M320.4 398.6h0" style="stroke-dasharray:0,2;stroke-dashoffset:0"/><path fill="none" stroke="#FDFDFD" stroke-linecap="round" stroke-linejoin="round" stroke-miterlimit="10" d="m220.4 417.1-.3-.1" style="stroke-dasharray:1,3;stroke-dashoffset:0"/><path fill="none" stroke="#FDFDFD" stroke-linecap="round" stroke-linejoin="round" stroke-miterlimit="10" d="M264.1 385.4h0l-22.9 3.4" style="stroke-dasharray:24,26;stroke-dashoffset:0"/></svg>